<?xml version="1.0" encoding="UTF-8" standalone="no"?>
<!DOCTYPE svg PUBLIC "-//W3C//DTD SVG 1.1//EN" "http://www.w3.org/Graphics/SVG/1.1/DTD/svg11.dtd">
<svg width="100%" height="100%" viewBox="0 0 1080 1920" version="1.1" xmlns="http://www.w3.org/2000/svg" xmlns:xlink="http://www.w3.org/1999/xlink" xml:space="preserve" xmlns:serif="http://www.serif.com/" style="fill-rule:evenodd;clip-rule:evenodd;stroke-linecap:round;stroke-linejoin:round;stroke-miterlimit:1.5;">
    <g transform="matrix(0.5625,0,0,2.010272,-0,0)">
        <rect x="0" y="0" width="1920" height="696.042" style="fill:white;"/>
    </g>
    <g transform="matrix(0.646832,-0.263922,0.263922,0.646832,-323.429133,752.153296)">
        <g transform="matrix(0,1.839441,-1.575775,0.168822,699.294735,744.729744)">
            <path d="M25.726,0C25.726,-14.208 14.208,-25.726 -0,-25.726C-13.532,-25.726 -24.501,-14.757 -24.501,-1.225C-24.501,11.594 -14.109,21.986 -1.29,21.986C10.818,21.986 20.632,12.172 20.632,0.064C20.632,-11.331 11.395,-20.568 -0,-20.568C-10.683,-20.568 -19.343,-11.908 -19.343,-1.225C-19.343,8.746 -11.26,16.828 -1.29,16.828C7.969,16.828 15.474,9.323 15.474,0.064C15.474,-8.482 8.546,-15.41 -0,-15.41C-7.834,-15.41 -14.185,-9.059 -14.185,-1.225C-14.185,5.897 -8.411,11.67 -1.29,11.67C5.12,11.67 10.316,6.474 10.316,0.064C10.316,-5.633 5.697,-10.252 -0,-10.252C-4.985,-10.252 -9.027,-6.21 -9.027,-1.225C-9.027,3.048 -5.563,6.512 -1.29,6.512C2.271,6.512 5.158,3.625 5.158,0.064C5.158,-2.784 2.849,-5.094 -0,-5.094C-2.137,-5.094 -3.869,-3.362 -3.869,-1.225C-3.869,0.199 -2.714,1.354 -1.29,1.354C-0.577,1.354 0,0.777 -0,0.064" style="fill:rgb(255,0,4);stroke:black;stroke-width:0.79px;"/>
        </g>
        <g transform="matrix(0.605885,0,0,1.914897,-141.14627,-68.632238)">
            <g transform="matrix(1.350244,-0.183164,0.183164,1.350244,-184.147919,-132.252736)">
                <g transform="matrix(147.868447,0,0,147.868447,572.078046,582.755512)">
                </g>
                <text x="471.068px" y="582.756px" style="font-family:'CenturyGothic', 'Century Gothic', sans-serif;font-size:147.868px;fill:rgb(255,0,0);">a</text>
            </g>
            <g transform="matrix(1,0,0,1,204.273205,-42.755512)">
                <g transform="matrix(147.868447,0,0,147.868447,635.543068,582.755512)">
                </g>
                <text x="471.068px" y="582.756px" style="font-family:'ArialMT', 'Arial', sans-serif;font-size:147.868px;fill:rgb(223,22,22);">nd</text>
            </g>
            <g transform="matrix(1,0,0,1,353.008069,-32.214109)">
                <g transform="matrix(147.868447,0,0,147.868447,653.30461,582.755512)">
                </g>
                <text x="471.068px" y="582.756px" style="font-family:'BellMT', 'Bell MT', serif;font-size:147.868px;fill:rgb(246,171,10);">er<tspan x="594.749px " y="582.756px ">s</tspan></text>
            </g>
            <g transform="matrix(0.99246,-0.122569,0.122569,0.99246,453.924396,22.162874)">
                <g transform="matrix(147.868447,0,0,147.868447,648.539319,582.755512)">
                </g>
                <text x="471.068px" y="582.756px" style="font-family:'CourierNewPSMT', 'Courier New', monospace;font-size:147.868px;fill:rgb(255,0,11);">on</text>
            </g>
        </g>
        <g transform="matrix(0.676559,0,0,2.138259,-41.953075,-89.68824)">
            <g transform="matrix(0.957304,0.133698,-0.133698,0.957304,565.211937,-160.296)">
                <g transform="matrix(147.868447,0,0,147.868447,702.762563,582.755512)">
                </g>
                <text x="471.068px" y="582.756px" style="font-family:'BaskOldFace', 'Baskerville Old Face', serif;font-size:147.868px;fill:rgb(255,0,4);">guiz</text>
            </g>
            <g transform="matrix(1,0,0,1,687.720963,-71.565971)">
                <g transform="matrix(147.868447,0,0,147.868447,600.886401,582.755512)">
                </g>
                <text x="471.068px" y="582.756px" style="font-family:'CurlzMT', 'Curlz MT', fantasy;font-size:147.868px;fill:rgb(255,105,0);">an</text>
            </g>
        </g>
    </g>
    <g transform="matrix(0.5625,0,0,1.376749,0,433.11089)">
        <rect x="0" y="696.042" width="1920" height="383.958" style="fill:rgb(115,135,209);"/>
    </g>
    <g transform="matrix(0.762417,0,0,2.409615,-409.049974,-269.232995)">
        <g transform="matrix(1.562202,0.249956,-0.249956,1.562202,214.158477,-646.860136)">
            <g transform="matrix(147.868447,0,0,147.868447,562.19806,826.748506)">
            </g>
            <text x="491.874px" y="826.749px" style="font-family:'BlackadderITC-Regular', 'Blackadder ITC', fantasy;font-size:147.868px;fill:white;">il</text>
        </g>
        <g transform="matrix(1.562202,0.249956,-0.249956,1.562202,220.175893,-646.860136)">
            <g transform="matrix(147.868447,0,0,147.868447,562.19806,826.748506)">
            </g>
            <text x="491.874px" y="826.749px" style="font-family:'BlackadderITC-Regular', 'Blackadder ITC', fantasy;font-size:147.868px;fill:rgb(115,135,209);fill-opacity:0.06;">il</text>
        </g>
        <g transform="matrix(0.984229,0.176897,-0.176897,0.984229,546.770056,-114.896136)">
            <g transform="matrix(147.868447,0,0,147.868447,635.454168,826.748506)">
            </g>
            <text x="491.874px" y="826.749px" style="font-family:'Caladea-Regular', 'Caladea', serif;font-size:147.868px;fill:rgb(255,105,0);">v<tspan x="563.294px " y="826.749px ">a</tspan></text>
        </g>
        <g transform="matrix(1.209424,0.207626,-0.207626,1.209424,293.98187,-354.288947)">
            <g transform="matrix(147.868447,0,0,147.868447,536.061156,826.748506)">
            </g>
            <text x="491.874px" y="826.749px" style="font-family:'BerlinSansFB-Reg', 'Berlin Sans FB', sans-serif;font-size:147.868px;fill:rgb(255,0,4);">s</text>
        </g>
    </g>
    <g transform="matrix(1.195529,0,0,2.051555,31.955691,157.072061)">
        <path d="M120.378,205.466C120.378,205.466 161.618,203.903 205.827,204.029C233.307,204.107 230.457,202.713 261.121,200.689C284.466,199.148 358.555,195.015 367.04,195.015C319.774,179.259 359.227,108.353 419.006,153.187C431.111,162.266 425.031,177.368 423.783,177.992C410.878,184.444 479.214,139.499 526.265,153.977C554.324,162.61 592.236,166.605 597.793,164.752C632.132,153.306 698.588,182.995 665.884,166.643C587.48,127.441 521.98,136.703 568.644,130.036C587.617,127.326 601.258,76.445 554.723,79.973C553.062,80.099 538.274,82.295 533.485,96.661C536.301,73.115 525.033,36.352 481.844,57.946C480.22,58.758 450.241,86.894 480.525,104.227C431.408,99.761 419.587,71.392 377.957,96.088C329.442,124.868 412.886,84.445 357.237,45.701C345.026,37.199 314.793,42.975 306.407,56.39C293.431,77.147 312.304,91.929 307.844,86.523C293.381,68.991 290.159,50.646 270.567,48.824C252.53,47.147 208.161,58.566 208.161,85.312C208.161,88.103 208.161,75.855 181.681,62.615C162.704,53.127 143.489,59.584 131.721,65.79C124.881,69.397 120.557,72.919 120.259,73.175C105.899,85.48 86.829,115.498 124.939,134.489C134.184,139.096 160.443,133.776 149.635,139.18C148.087,139.954 106.932,139.391 74.649,155.533C66.161,159.777 9.074,178.958 25.386,187.114C31.315,190.078 156.827,180.967 162.463,183.785C166.021,185.564 -13.234,214.636 101.306,203.481C104.211,203.198 110.048,205.139 120.378,205.466Z" style="fill:rgb(229,231,239);fill-opacity:0.57;"/>
    </g>
    <g transform="matrix(0.439106,0,0,0.577778,733.417953,589.962225)">
        <path d="M120.378,205.466C120.378,205.466 161.618,203.903 205.827,204.029C233.307,204.107 230.457,202.713 261.121,200.689C284.466,199.148 358.555,195.015 367.04,195.015C319.774,179.259 359.227,108.353 419.006,153.187C431.111,162.266 425.031,177.368 423.783,177.992C410.878,184.444 479.214,139.499 526.265,153.977C554.324,162.61 592.236,166.605 597.793,164.752C632.132,153.306 698.588,182.995 665.884,166.643C587.48,127.441 521.98,136.703 568.644,130.036C587.617,127.326 601.258,76.445 554.723,79.973C553.062,80.099 538.274,82.295 533.485,96.661C536.301,73.115 525.033,36.352 481.844,57.946C480.22,58.758 450.241,86.894 480.525,104.227C431.408,99.761 419.587,71.392 377.957,96.088C329.442,124.868 412.886,84.445 357.237,45.701C345.026,37.199 314.793,42.975 306.407,56.39C293.431,77.147 312.304,91.929 307.844,86.523C293.381,68.991 290.159,50.646 270.567,48.824C252.53,47.147 208.161,58.566 208.161,85.312C208.161,88.103 208.161,75.855 181.681,62.615C162.704,53.127 143.489,59.584 131.721,65.79C124.881,69.397 120.557,72.919 120.259,73.175C105.899,85.48 86.829,115.498 124.939,134.489C134.184,139.096 160.443,133.776 149.635,139.18C148.087,139.954 106.932,139.391 74.649,155.533C66.161,159.777 9.074,178.958 25.386,187.114C31.315,190.078 156.827,180.967 162.463,183.785C166.021,185.564 -13.234,214.636 101.306,203.481C104.211,203.198 110.048,205.139 120.378,205.466Z" style="fill:rgb(229,231,239);fill-opacity:0.57;"/>
    </g>
</svg>
