<?xml version="1.0" encoding="UTF-8" standalone="no"?>
<!DOCTYPE svg PUBLIC "-//W3C//DTD SVG 1.1//EN" "http://www.w3.org/Graphics/SVG/1.1/DTD/svg11.dtd">
<svg width="100%" height="100%" viewBox="0 0 1080 1920" version="1.1" xmlns="http://www.w3.org/2000/svg" xmlns:xlink="http://www.w3.org/1999/xlink" xml:space="preserve" xmlns:serif="http://www.serif.com/" style="fill-rule:evenodd;clip-rule:evenodd;stroke-linecap:round;stroke-linejoin:round;stroke-miterlimit:1.5;">
    <g transform="matrix(0.5625,0,0,2.010272,0,-10.305306)">
        <rect x="0" y="0" width="1920" height="696.042" style="fill:white;"/>
    </g>
    <g transform="matrix(0.990085,-0.140468,0.140468,0.990085,-608.699184,295.935843)">
        <g transform="matrix(0.261534,0.782152,-0.989888,0.330997,736.103353,1026.804662)">
            <path d="M32.01,0C32.01,-17.679 17.679,-32.01 -0,-32.01C-16.837,-32.01 -30.486,-18.361 -30.486,-1.524C-30.486,14.426 -17.555,27.357 -1.605,27.357C13.46,27.357 25.672,15.145 25.672,0.08C25.672,-14.098 14.178,-25.592 -0,-25.592C-13.292,-25.592 -24.068,-14.817 -24.068,-1.524C-24.068,10.882 -14.011,20.939 -1.605,20.939C9.915,20.939 19.254,11.6 19.254,0.08C19.254,-10.554 10.634,-19.174 -0,-19.174C-9.748,-19.174 -17.65,-11.272 -17.65,-1.524C-17.65,7.337 -10.466,14.521 -1.605,14.521C6.371,14.521 12.836,8.056 12.836,0.08C12.836,-7.009 7.089,-12.756 -0,-12.756C-6.203,-12.756 -11.232,-7.727 -11.232,-1.524C-11.232,3.793 -6.921,8.103 -1.605,8.103C2.826,8.103 6.418,4.511 6.418,0.08C6.418,-3.464 3.545,-6.338 -0,-6.338C-2.658,-6.338 -4.814,-4.183 -4.814,-1.524C-4.814,0.248 -3.377,1.685 -1.605,1.685C-0.718,1.685 0,0.966 -0,0.08" style="fill:rgb(255,191,0);stroke:white;stroke-width:0.99px;"/>
        </g>
        <g transform="matrix(0.950888,0.029522,-0.029522,0.950888,178.941965,-258.202831)">
            <text x="498.711px" y="1414.162px" style="font-family:'BaskOldFace', 'Baskerville Old Face', serif;font-size:126.309px;fill:rgb(255,0,4);">gu</text>
            <text x="615.337px" y="1414.162px" style="font-family:'BaskOldFace', 'Baskerville Old Face', serif;font-size:126.309px;fill:rgb(246,172,13);">i</text>
            <g transform="matrix(126.30928,0,0,126.30928,696.624267,1414.1625)">
            </g>
            <text x="645.928px" y="1414.162px" style="font-family:'BaskOldFace', 'Baskerville Old Face', serif;font-size:126.309px;fill:rgb(255,0,4);">z</text>
        </g>
        <g transform="matrix(1.518224,-0.449475,0.449475,1.518224,-920.334447,-657.591331)">
            <g transform="matrix(72.597849,0,0,72.597849,787.037813,1391.386183)">
            </g>
            <text x="723.302px" y="1391.386px" style="font-family:'CurlzMT', 'Curlz MT', fantasy;font-size:72.598px;fill:rgb(246,172,13);">an</text>
        </g>
    </g>
    <g transform="matrix(0.769699,-0.638407,0.638407,0.769699,-1056.022476,547.37728)">
        <g transform="matrix(1,0,0,1,-25.377521,42)">
            <g transform="matrix(96,0,0,96,872.78041,1222.020101)">
            </g>
            <text x="757.562px" y="1222.02px" style="font-family:'CourierNewPSMT', 'Courier New', monospace;font-size:96px;fill:rgb(255,0,4);">on</text>
        </g>
        <g transform="matrix(10.422704,1.819074,-1.819074,10.422704,-4104.070729,-12291.114523)">
            <g transform="matrix(7.58101,0,0,7.58101,671.738958,1185.764811)">
            </g>
            <text x="662.396px" y="1185.765px" style="font-family:'BellMT', 'Bell MT', serif;font-size:7.581px;fill:rgb(246,172,13);">ers</text>
        </g>
        <g transform="matrix(15.569186,-1.562704,1.562704,15.569186,-10672.28623,-17349.127286)">
            <g transform="matrix(7.58101,0,0,7.58101,601.040166,1255.552994)">
            </g>
            <text x="592.608px" y="1255.553px" style="font-family:'ArialMT', 'Arial', sans-serif;font-size:7.581px;fill:rgb(255,0,0);">nd</text>
        </g>
        <g transform="matrix(23.567111,-12.188472,12.188472,23.567111,-24656.353622,-24954.714595)">
            <g transform="matrix(7.58101,0,0,7.58101,389.690731,1313.921292)">
            </g>
            <text x="384.512px" y="1313.921px" style="font-family:'CenturyGothic', 'Century Gothic', sans-serif;font-size:7.581px;fill:rgb(255,0,0);">a</text>
        </g>
    </g>
    <g transform="matrix(0.5625,0,0,1.376749,0,433.11089)">
        <rect x="0" y="696.042" width="1920" height="383.958" style="fill:rgb(115,135,209);"/>
    </g>
    <g transform="matrix(1.195529,0,0,1.1635,7.401733,241.058929)">
        <path d="M120.378,205.466C120.378,205.466 161.618,203.903 205.827,204.029C233.307,204.107 230.457,202.713 261.121,200.689C284.466,199.148 358.555,195.015 367.04,195.015C319.774,179.259 359.227,108.353 419.006,153.187C431.111,162.266 425.031,177.368 423.783,177.992C410.878,184.444 479.214,139.499 526.265,153.977C554.324,162.61 592.236,166.605 597.793,164.752C632.132,153.306 698.588,182.995 665.884,166.643C587.48,127.441 521.98,136.703 568.644,130.036C587.617,127.326 601.258,76.445 554.723,79.973C553.062,80.099 538.274,82.295 533.485,96.661C536.301,73.115 525.033,36.352 481.844,57.946C480.22,58.758 450.241,86.894 480.525,104.227C431.408,99.761 419.587,71.392 377.957,96.088C329.442,124.868 412.886,84.445 357.237,45.701C345.026,37.199 314.793,42.975 306.407,56.39C293.431,77.147 312.304,91.929 307.844,86.523C293.381,68.991 290.159,50.646 270.567,48.824C252.53,47.147 208.161,58.566 208.161,85.312C208.161,88.103 208.161,75.855 181.681,62.615C162.704,53.127 143.489,59.584 131.721,65.79C124.881,69.397 120.557,72.919 120.259,73.175C105.899,85.48 86.829,115.498 124.939,134.489C134.184,139.096 160.443,133.776 149.635,139.18C148.087,139.954 106.932,139.391 74.649,155.533C66.161,159.777 9.074,178.958 25.386,187.114C31.315,190.078 156.827,180.967 162.463,183.785C166.021,185.564 -13.234,214.636 101.306,203.481C104.211,203.198 110.048,205.139 120.378,205.466Z" style="fill:rgb(229,231,239);fill-opacity:0.57;"/>
    </g>
    <g transform="matrix(0.439106,0,0,0.457972,733.417953,594.959016)">
        <path d="M120.378,205.466C120.378,205.466 161.618,203.903 205.827,204.029C233.307,204.107 230.457,202.713 261.121,200.689C284.466,199.148 358.555,195.015 367.04,195.015C319.774,179.259 359.227,108.353 419.006,153.187C431.111,162.266 425.031,177.368 423.783,177.992C410.878,184.444 479.214,139.499 526.265,153.977C554.324,162.61 592.236,166.605 597.793,164.752C632.132,153.306 698.588,182.995 665.884,166.643C587.48,127.441 521.98,136.703 568.644,130.036C587.617,127.326 601.258,76.445 554.723,79.973C553.062,80.099 538.274,82.295 533.485,96.661C536.301,73.115 525.033,36.352 481.844,57.946C480.22,58.758 450.241,86.894 480.525,104.227C431.408,99.761 419.587,71.392 377.957,96.088C329.442,124.868 412.886,84.445 357.237,45.701C345.026,37.199 314.793,42.975 306.407,56.39C293.431,77.147 312.304,91.929 307.844,86.523C293.381,68.991 290.159,50.646 270.567,48.824C252.53,47.147 208.161,58.566 208.161,85.312C208.161,88.103 208.161,75.855 181.681,62.615C162.704,53.127 143.489,59.584 131.721,65.79C124.881,69.397 120.557,72.919 120.259,73.175C105.899,85.48 86.829,115.498 124.939,134.489C134.184,139.096 160.443,133.776 149.635,139.18C148.087,139.954 106.932,139.391 74.649,155.533C66.161,159.777 9.074,178.958 25.386,187.114C31.315,190.078 156.827,180.967 162.463,183.785C166.021,185.564 -13.234,214.636 101.306,203.481C104.211,203.198 110.048,205.139 120.378,205.466Z" style="fill:rgb(229,231,239);fill-opacity:0.57;"/>
    </g>
    <g transform="matrix(1,0,0,1,-572.263096,71.047836)">
        <g transform="matrix(0.965173,0.261611,-0.261611,0.965173,320.776393,-185.788438)">
            <g transform="matrix(92.487534,0,0,92.487534,950.146015,1380.589635)">
            </g>
            <text x="860.341px" y="1380.59px" style="font-family:'Caladea-Regular', 'Caladea', serif;font-size:92.488px;fill:rgb(246,119,10);">v<tspan x="905.012px " y="1380.59px ">a</tspan></text>
        </g>
        <g transform="matrix(0.984569,-0.138028,0.138028,0.984569,-169.066824,115.268662)">
            <g transform="matrix(170.720431,0,0,170.720431,726.861207,1358.561907)">
            </g>
            <text x="647.169px" y="1358.562px" style="font-family:'BerlinSansFB-Reg', 'Berlin Sans FB', sans-serif;font-size:170.72px;fill:rgb(255,0,0);">S</text>
        </g>
        <g transform="matrix(1.556435,-0.334861,0.334861,1.556435,-867.254083,-439.607698)">
            <g transform="matrix(92.487534,0,0,92.487534,783.783166,1338.058532)">
            </g>
            <text x="739.797px" y="1338.059px" style="font-family:'BlackadderITC-Regular', 'Blackadder ITC', fantasy;font-size:92.488px;fill:rgb(229,231,239);">il</text>
        </g>
        <g transform="matrix(1.556435,-0.334861,0.334861,1.556435,-873.254083,-439.607698)">
            <g transform="matrix(92.487534,0,0,92.487534,783.783166,1338.058532)">
            </g>
            <text x="739.797px" y="1338.059px" style="font-family:'BlackadderITC-Regular', 'Blackadder ITC', fantasy;font-size:92.488px;fill:white;">il</text>
        </g>
        <g transform="matrix(1.556435,-0.334861,0.334861,1.556435,-864.254083,-442.506118)">
            <g transform="matrix(92.487534,0,0,92.487534,783.783166,1338.058532)">
            </g>
            <text x="739.797px" y="1338.059px" style="font-family:'BlackadderITC-Regular', 'Blackadder ITC', fantasy;font-size:92.488px;fill:rgb(229,231,239);">il</text>
        </g>
        <g transform="matrix(1.556435,-0.334861,0.334861,1.556435,-870.254083,-442.506118)">
            <g transform="matrix(92.487534,0,0,92.487534,783.783166,1338.058532)">
            </g>
            <text x="739.797px" y="1338.059px" style="font-family:'BlackadderITC-Regular', 'Blackadder ITC', fantasy;font-size:92.488px;fill:white;">il</text>
        </g>
    </g>
</svg>
